PathFileType	4	(X/Y/Z)	D:\TRACE\spot_10-12-23\spot_arm_body_motion_3_8-platform.trc
DataRate	CameraRate	NumFrames	NumMarkers	Units	OrigDataRate	OrigDataStartFrame	OrigNumFrames
100.00	100.00	      36	5	mm	100.00	6126	      7000
Frame#	Time	Left_Front			Right_Front			Left_Aft			Right_Aft			Post			
		X1	Y1	Z1	X2	Y2	Z2	X3	Y3	Z3	X4	Y4	Z4	X5	Y5	Z5	

6126	61.250	-764.41260	34.15229	-634.22589	808.31744	39.16604	-627.37146	-681.17401	-14.27360	502.42313	736.32990	-12.91893	588.69452	18.45514	784.72827	-921.18121	
6127	61.260	-764.69714	34.46319	-634.11932	808.07886	39.40736	-627.29871	-681.41473	-14.49051	502.49600	735.95038	-13.20270	588.83252	18.22017	785.02264	-920.98926	
6128	61.270	-764.94983	34.77801	-634.05914	807.89941	39.67373	-627.15369	-681.74841	-14.69980	502.57370	735.62830	-13.58368	588.85059	18.13363	785.51318	-920.75769	
6129	61.280	-765.22913	35.05565	-634.01147	807.62659	40.03057	-627.07245	-682.14252	-14.92325	502.72708	735.34375	-13.85747	588.86401	17.79777	786.09436	-920.47015	
6130	61.290	-765.49329	35.25721	-633.90582	807.37048	40.29069	-627.02277	-682.53497	-15.25354	502.79675	735.01666	-14.08340	588.87756	17.30659	786.58252	-920.11279	
6131	61.300	-765.91235	35.67863	-633.94867	807.07190	40.52299	-626.93445	-682.87372	-15.41438	502.86816	734.62262	-14.37023	588.88550	16.88375	786.92133	-919.66888	
6132	61.310	-766.39343	36.15778	-633.89276	806.58264	40.79572	-626.90802	-683.16425	-15.54154	502.89532	734.24615	-14.56961	588.98163	16.59777	787.34851	-919.17255	
6133	61.320	-766.76532	36.54614	-633.85181	806.13373	41.17435	-626.83453	-683.45764	-15.74838	502.94751	734.00507	-14.66667	589.04803	16.33542	787.64410	-918.64911	
6134	61.330	-767.05640	36.71066	-633.73846	805.88184	41.33551	-626.76813	-683.79816	-15.96397	502.99329	733.72784	-14.83615	589.14429	15.94746	787.91266	-918.00385	
6135	61.340	-767.07715	36.65884	-633.71143	805.52435	41.52275	-626.73962	-684.18463	-16.14768	503.00665	733.34680	-15.05463	589.24438	15.56472	788.22577	-917.29553	
6136	61.350	-767.44208	36.93129	-633.61597	805.31995	41.59632	-626.59454	-684.48340	-16.26169	503.00278	733.08398	-15.24836	589.25629	15.16860	788.50494	-916.79749	
6137	61.360	-767.88611	37.17080	-633.50098	804.85144	41.83923	-626.69318	-684.61890	-16.37899	503.06827	732.79517	-15.44967	589.29883	14.73517	788.71600	-916.61304	
6138	61.370	-768.20123	37.32007	-633.42792	804.59686	42.00319	-626.69073	-684.80542	-16.48915	503.13495	732.59125	-15.56263	589.32886	14.40454	789.04633	-916.27692	
6139	61.380	-768.45691	37.40033	-633.33978	804.30255	42.20646	-626.66187	-685.25336	-16.59108	503.14874	732.35083	-15.63436	589.33057	14.13289	789.43591	-916.06311	
6140	61.390	-768.68018	37.62051	-633.39166	803.86725	42.42167	-626.61658	-685.68176	-16.78254	503.16605	731.82709	-15.86946	589.33698	13.86424	789.71368	-915.90491	
6141	61.400	-769.14441	37.92322	-633.26685	803.56000	42.67285	-626.45636	-685.96014	-16.95680	503.23260	731.45496	-16.06271	589.30188	13.78010	790.03094	-915.94391	
6142	61.410	-769.48022	38.23561	-633.18335	803.26367	42.84724	-626.33728	-686.20630	-17.09274	503.33517	731.12402	-16.22144	589.30841	13.49693	790.38086	-915.87024	
6143	61.420	-769.68884	38.43454	-633.08081	802.87225	43.03858	-626.24139	-686.47961	-17.18775	503.37244	730.79956	-16.39475	589.34424	13.12664	790.63770	-915.73566	
6144	61.430	-770.06927	39.06151	-633.16675	802.59460	43.25945	-626.15906	-686.68799	-17.32778	503.41000	730.50726	-16.55258	589.45996	12.84430	790.77460	-915.65955	
6145	61.440	-770.28729	38.98016	-633.14886	802.40930	43.25345	-626.17236	-686.96954	-17.27475	503.49936	730.32056	-16.62614	589.57941	12.50245	791.02911	-915.52216	
6146	61.450	-770.61755	38.75080	-632.98578	802.27972	43.15863	-626.16388	-687.36121	-17.41797	503.46945	730.03571	-16.79194	589.68402	12.22801	791.17938	-915.30164	
6147	61.460	-770.95508	38.90452	-632.99438	801.89246	43.44689	-626.09619	-687.80957	-17.60007	503.59106	729.76630	-16.90111	589.75488	11.91002	791.38348	-915.04486	
6148	61.470	-771.30811	39.30612	-632.97046	801.48663	43.68793	-626.04340	-688.15912	-17.68570	503.63986	729.46478	-17.07608	589.79688	11.67944	791.57843	-914.76080	
6149	61.480	-771.62012	39.56499	-632.89246	801.09076	43.85432	-625.92810	-688.42639	-17.75121	503.63727	729.17487	-17.20910	589.83398	10.81586	791.96130	-914.71490	
6150	61.490	-771.74219	39.60664	-632.83264	800.92883	43.93656	-625.83276	-688.51288	-17.83313	503.70514	728.94049	-17.25763	589.82660	11.07442	792.11530	-913.98035	
6151	61.500	-771.96454	39.72802	-632.81152	800.72003	44.17202	-625.80145	-688.70837	-17.92114	503.70419	728.75122	-17.39845	589.81104	10.62048	792.34412	-913.57556	
6152	61.510	-772.21277	39.48440	-632.74487	800.44299	44.24729	-625.82709	-688.92084	-17.95389	503.69577	728.43817	-17.57103	589.72052	10.50562	792.47742	-913.31488	
6153	61.520	-772.33325	39.49075	-632.79688	800.22064	44.27451	-625.82733	-689.14575	-18.33322	503.84644	728.11993	-17.63354	589.68634	10.39650	792.46075	-913.00671	
6154	61.530	-772.56665	39.66769	-632.69257	799.89703	44.34416	-625.87964	-689.59680	-18.32198	503.56165	727.86340	-17.71165	589.69067	10.12528	792.50641	-912.82434	
6155	61.540	-772.86200	39.99195	-632.69214	799.70282	44.45649	-625.81909	-689.87054	-18.30164	503.56989	727.51978	-17.77240	589.73999	9.86833	792.65271	-912.68457	
6156	61.550	-773.10077	40.10733	-632.78943	799.45013	44.61716	-625.76837	-690.08948	-18.36899	503.81616	727.34503	-17.71310	589.77155	9.65442	792.77881	-912.57538	
6157	61.560	-773.36688	40.03115	-632.80310	799.29193	44.64439	-625.81940	-690.37061	-18.39400	503.84222	727.19464	-17.82117	589.77429	9.44867	792.81635	-912.53906	
6158	61.570	-773.57587	40.01429	-632.84113	799.12415	44.61518	-625.79822	-690.50378	-18.44495	503.86011	727.05298	-17.90316	589.76599	9.24153	792.89709	-912.64551	
6159	61.580	-773.78766	40.06425	-632.78400	798.95313	44.64792	-625.83600	-690.60822	-18.52780	503.90216	726.80316	-17.91580	589.79047	9.20122	792.90289	-912.84619	
6160	61.590	-774.03174	40.30037	-632.65167	798.75934	44.75505	-625.78503	-690.71130	-18.53353	503.85205	726.65613	-17.95365	589.85663	9.02528	793.03448	-913.02734	
6161	61.600	-774.33832	40.43952	-632.62311	798.53735	44.83198	-625.67542	-690.92908	-18.45331	503.62720	726.50983	-18.00464	589.83984	8.67734	793.21625	-913.25006	
